<svg id="Layer_1" data-name="Layer 1" xmlns="http://www.w3.org/2000/svg" viewBox="0 0 857.44603 221.80176">
  <defs>
    <style>
      .cls-1 {
        fill: #0c5adb;
      }
    </style>
  </defs>
  <g>
    <g>
      <rect class="cls-1" x="74.6029" y="81.26663" width="28.13261" height="87.84671" transform="translate(-62.55208 99.36589) rotate(-45)"/>
      <rect class="cls-1" x="129.98933" y="107.16864" width="28.13261" height="34.47976" transform="translate(-45.77719 138.30112) rotate(-45)"/>
      <rect class="cls-1" x="64.84418" y="113.17765" width="28.13261" height="115.60816" transform="translate(-97.78999 105.87753) rotate(-45)"/>
      <rect class="cls-1" x="169.71935" y="88.26062" width="28.13261" height="79.33903" transform="translate(223.28146 348.34648) rotate(-135)"/>
      <rect class="cls-1" x="118.22521" y="157.85416" width="28.13261" height="43.14021" transform="translate(98.96363 399.84061) rotate(-135)"/>
      <rect class="cls-1" x="51.85841" y="-13.24061" width="28.13261" height="158.33064" transform="translate(65.92471 -27.30691) rotate(45)"/>
      <rect class="cls-1" x="107.86319" y="26.33935" width="28.13261" height="79.49625" transform="translate(82.44322 -66.8606) rotate(45)"/>
      <rect class="cls-1" x="147.08244" y="25.12161" width="28.13261" height="87.86975" transform="translate(-1.63097 134.17546) rotate(-44.99997)"/>
      <rect class="cls-1" x="121.89831" y="99.85226" width="39.71119" height="28.13158" transform="translate(-39.03347 133.60099) rotate(-45)"/>
      <rect class="cls-1" x="88.51307" y="73.05246" width="36.25174" height="28.13158" transform="translate(92.83572 -49.88878) rotate(45)"/>
    </g>
    <g>
      <g>
        <path class="cls-1" d="M310.17357,54.69678V65.0669H296.09349V107.835H283.15013V65.0669H269.07005V54.69678Z"/>
        <path class="cls-1" d="M329.62572,97.84326h16.95605v9.9917H316.68236V54.69678h12.94336Z"/>
        <path class="cls-1" d="M388.06224,71.501a9.70054,9.70054,0,0,0-4.126-4.04981,13.5054,13.5054,0,0,0-6.32031-1.40039,13.003,13.003,0,0,0-10.06738,4.12549q-3.78663,4.12647-3.78516,11.01367,0,7.34326,3.97363,11.46826,3.97413,4.12647,10.93848,4.125a13.2258,13.2258,0,0,0,8.06152-2.42187,13.73086,13.73086,0,0,0,4.80664-6.96436H375.1179V77.85938h28.15918V89.895a25.40462,25.40462,0,0,1-4.88281,9.00781,25.75508,25.75508,0,0,1-8.74316,6.73682,27.01633,27.01633,0,0,1-11.96,2.57373,28.29249,28.29249,0,0,1-14.041-3.44434,24.51694,24.51694,0,0,1-9.61328-9.57519,28.08891,28.08891,0,0,1-3.44434-14.00391,28.30743,28.30743,0,0,1,3.44434-14.0415,24.536,24.536,0,0,1,9.57519-9.61328A28.10053,28.10053,0,0,1,377.616,54.09082q9.5376,0,16.085,4.61768a21.79467,21.79467,0,0,1,8.667,12.79248Z"/>
        <path class="cls-1" d="M461.10716,58.02734a23.80382,23.80382,0,0,1,9.72656,9.34815,27.472,27.472,0,0,1,3.44434,13.89014,27.52364,27.52364,0,0,1-3.44434,13.85254,23.67385,23.67385,0,0,1-9.76465,9.38623,30.95752,30.95752,0,0,1-14.64648,3.33056h-19.9082V54.69678h19.9082A30.914,30.914,0,0,1,461.10716,58.02734Zm-4.08789,34.59278q4.08839-4.01148,4.08789-11.35449,0-7.34108-4.08789-11.42969-4.08691-4.08765-11.42969-4.08789h-6.13183V96.63184h6.13183Q452.93138,96.63184,457.01927,92.62012Z"/>
        <path class="cls-1" d="M521.13353,89.81934H491.83861a8.79643,8.79643,0,0,0,2.53613,6.01806A7.74374,7.74374,0,0,0,499.863,97.919a6.8028,6.8028,0,0,0,6.73633-4.08789h13.77734a18.92479,18.92479,0,0,1-3.82324,7.49414,19.14114,19.14114,0,0,1-6.92578,5.22314,22.25073,22.25073,0,0,1-9.31055,1.89209,22.64182,22.64182,0,0,1-11.05176-2.64941,18.82916,18.82916,0,0,1-7.56933-7.56934,23.36051,23.36051,0,0,1-2.72559-11.50586A23.63345,23.63345,0,0,1,481.65794,75.21a18.60072,18.60072,0,0,1,7.53223-7.56933,24.53061,24.53061,0,0,1,22.02734-.07569,18.4893,18.4893,0,0,1,7.45606,7.34229,22.30118,22.30118,0,0,1,2.68652,11.12744A33.03992,33.03992,0,0,1,521.13353,89.81934ZM508.114,82.62842a6.65812,6.65812,0,0,0-2.27149-5.29883,8.36106,8.36106,0,0,0-5.67676-1.96826,8.20125,8.20125,0,0,0-5.48828,1.89258,8.40208,8.40208,0,0,0-2.76269,5.37451Z"/>
        <path class="cls-1" d="M547.17161,95.72363l9.15918-30.12695h13.77735L555.11986,107.835H539.14818L524.16087,65.59668h13.85156Z"/>
        <path class="cls-1" d="M615.14622,89.81934H585.8513a8.79647,8.79647,0,0,0,2.53613,6.01806,7.74378,7.74378,0,0,0,5.48829,2.08155,6.80279,6.80279,0,0,0,6.73632-4.08789h13.77735a18.92481,18.92481,0,0,1-3.82325,7.49414,19.14105,19.14105,0,0,1-6.92578,5.22314,22.25068,22.25068,0,0,1-9.31054,1.89209,22.64176,22.64176,0,0,1-11.05176-2.64941,18.82925,18.82925,0,0,1-7.56934-7.56934,23.36061,23.36061,0,0,1-2.72558-11.50586A23.63334,23.63334,0,0,1,575.67064,75.21a18.60063,18.60063,0,0,1,7.53222-7.56933,24.53063,24.53063,0,0,1,22.02735-.07569,18.48921,18.48921,0,0,1,7.456,7.34229,22.30118,22.30118,0,0,1,2.68653,11.12744A33.03773,33.03773,0,0,1,615.14622,89.81934Zm-13.01953-7.19092a6.65811,6.65811,0,0,0-2.27148-5.29883,8.36106,8.36106,0,0,0-5.67676-1.96826,8.20124,8.20124,0,0,0-5.48828,1.89258,8.402,8.402,0,0,0-2.7627,5.37451Z"/>
        <path class="cls-1" d="M635.12962,51.82031V107.835H622.18626V51.82031Z"/>
        <path class="cls-1" d="M652.57786,105.791a19.39087,19.39087,0,0,1-7.79687-7.56934,22.61557,22.61557,0,0,1-2.83887-11.50586,22.42558,22.42558,0,0,1,2.87695-11.46777,19.52642,19.52642,0,0,1,7.87207-7.60742,25.011,25.011,0,0,1,22.40625,0,19.53243,19.53243,0,0,1,7.87208,7.60742,22.44492,22.44492,0,0,1,2.87695,11.46777,22.20688,22.20688,0,0,1-2.915,11.46777,19.70368,19.70368,0,0,1-7.94824,7.60743,23.75368,23.75368,0,0,1-11.24024,2.64941A23.30056,23.30056,0,0,1,652.57786,105.791ZM670.06322,94.5127q2.61181-2.72535,2.61132-7.79688,0-5.07055-2.53515-7.79639a8.60334,8.60334,0,0,0-12.52832-.03808q-2.49756,2.688-2.49805,7.83447,0,5.072,2.46094,7.79688a7.95923,7.95923,0,0,0,6.16894,2.72509A8.435,8.435,0,0,0,670.06322,94.5127Z"/>
        <path class="cls-1" d="M710.90111,66.80811a16.02613,16.02613,0,0,1,7.79687-1.8169,17.49413,17.49413,0,0,1,9.46191,2.64942A18.35794,18.35794,0,0,1,734.85814,75.21a25.25522,25.25522,0,0,1,2.46093,11.43018,25.48262,25.48262,0,0,1-2.46093,11.46777,18.55981,18.55981,0,0,1-6.69825,7.64551,17.30523,17.30523,0,0,1-9.46191,2.687,16.09232,16.09232,0,0,1-7.75976-1.81641,14.21706,14.21706,0,0,1-5.26075-4.69335v26.03955H692.73411V65.59668h12.94336v5.98A14.0377,14.0377,0,0,1,710.90111,66.80811Zm10.55957,12.22461a8.87969,8.87969,0,0,0-6.624-2.7627,8.72909,8.72909,0,0,0-6.54687,2.80078,10.58139,10.58139,0,0,0-2.6875,7.645,10.58023,10.58023,0,0,0,2.6875,7.64551,9.05549,9.05549,0,0,0,13.13281-.03809,10.63069,10.63069,0,0,0,2.72461-7.6831A10.45624,10.45624,0,0,0,721.46068,79.03272Z"/>
        <path class="cls-1" d="M783.71849,89.81934H754.42357a8.79643,8.79643,0,0,0,2.53613,6.01806A7.74374,7.74374,0,0,0,762.448,97.919a6.8028,6.8028,0,0,0,6.73633-4.08789h13.77734a18.92479,18.92479,0,0,1-3.82324,7.49414,19.14114,19.14114,0,0,1-6.92578,5.22314,22.25073,22.25073,0,0,1-9.31055,1.89209,22.64182,22.64182,0,0,1-11.05176-2.64941,18.82922,18.82922,0,0,1-7.56933-7.56934,23.36062,23.36062,0,0,1-2.72559-11.50586A23.63345,23.63345,0,0,1,744.2429,75.21a18.60072,18.60072,0,0,1,7.53223-7.56933,24.53061,24.53061,0,0,1,22.02734-.07569,18.48923,18.48923,0,0,1,7.45606,7.34229,22.30118,22.30118,0,0,1,2.68652,11.12744A33.03765,33.03765,0,0,1,783.71849,89.81934ZM770.699,82.62842a6.65812,6.65812,0,0,0-2.27149-5.29883,8.36106,8.36106,0,0,0-5.67675-1.96826,8.20128,8.20128,0,0,0-5.48829,1.89258,8.40208,8.40208,0,0,0-2.76269,5.37451Z"/>
        <path class="cls-1" d="M809.37962,67.14844a14.64592,14.64592,0,0,1,7.56934-2.00586V78.84375h-3.55762q-4.8457,0-7.2666,2.08154-2.42431,2.08228-2.42285,7.30469v19.605H790.75853V65.59668h12.94336v7.04A17.09017,17.09017,0,0,1,809.37962,67.14844Z"/>
        <path class="cls-1" d="M830.49779,106.54834a16.80986,16.80986,0,0,1-6.8125-5.18555,13.63449,13.63449,0,0,1-2.80079-7.38037h12.793a4.91845,4.91845,0,0,0,2.04395,3.55811,7.23033,7.23033,0,0,0,4.46582,1.3623,6.36964,6.36964,0,0,0,3.74707-.94629,2.898,2.898,0,0,0,1.32422-2.46,2.839,2.839,0,0,0-1.8916-2.687,38.48014,38.48014,0,0,0-6.13184-1.93066,57.3186,57.3186,0,0,1-7.56934-2.23291,13.06364,13.06364,0,0,1-5.22363-3.709,10.105,10.105,0,0,1-2.19433-6.85058,11.62808,11.62808,0,0,1,2.00585-6.623,13.49828,13.49828,0,0,1,5.9043-4.731,22.603,22.603,0,0,1,9.27246-1.74121q7.94825,0,12.52735,3.936a15.318,15.318,0,0,1,5.26074,10.44629h-11.96a5.16011,5.16011,0,0,0-1.92969-3.48194,6.69776,6.69776,0,0,0-4.27734-1.28711,5.91523,5.91523,0,0,0-3.48145.87061,2.77939,2.77939,0,0,0-1.21094,2.38428,2.90937,2.90937,0,0,0,1.92969,2.72509,30.96081,30.96081,0,0,0,6.01758,1.8169,65.94148,65.94148,0,0,1,7.64551,2.38428,13.20749,13.20749,0,0,1,5.18554,3.78466,10.72011,10.72011,0,0,1,2.3086,7.002,11.11242,11.11242,0,0,1-2.082,6.62353,13.76678,13.76678,0,0,1-5.9795,4.57959,22.8879,22.8879,0,0,1-9.04589,1.665A24.27607,24.27607,0,0,1,830.49779,106.54834Z"/>
      </g>
      <g>
        <path class="cls-1" d="M271.78294,132.90772v27.0791h-2.71289v-27.0791Z"/>
        <path class="cls-1" d="M293.78685,132.90772v2.24707h-7.51563v24.832h-2.71289v-24.832h-7.55371v-2.24707Z"/>
        <path class="cls-1" d="M312.20579,159.32813a7.69731,7.69731,0,0,1-3.19629-2.59522,6.8193,6.8193,0,0,1-1.23925-3.71924h2.86621a5.44453,5.44453,0,0,0,1.74414,3.46729,6.28359,6.28359,0,0,0,4.53222,1.49121,6.3674,6.3674,0,0,0,4.3584-1.41358,4.56638,4.56638,0,0,0,1.60742-3.58349,4.23431,4.23431,0,0,0-.89062-2.80859,5.45418,5.45418,0,0,0-2.209-1.58838,34.352,34.352,0,0,0-3.64063-1.14307,31.74269,31.74269,0,0,1-4.30078-1.43311,6.83693,6.83693,0,0,1-2.71094-2.16943,6.41554,6.41554,0,0,1-1.124-3.99023,6.63851,6.63851,0,0,1,1.085-3.73828,7.26021,7.26021,0,0,1,3.06055-2.57618,10.52182,10.52182,0,0,1,4.53222-.93017,9.42887,9.42887,0,0,1,6.0625,1.84033,6.91639,6.91639,0,0,1,2.65332,4.7456h-2.94336a4.87626,4.87626,0,0,0-1.82129-2.96337,7.20467,7.20467,0,0,0-8.251,0,4.28889,4.28889,0,0,0-1.627,3.54443,4.09621,4.09621,0,0,0,.89063,2.75049,5.67135,5.67135,0,0,0,2.22754,1.58838,32.875,32.875,0,0,0,3.62207,1.16211,32.86652,32.86652,0,0,1,4.26172,1.45263,6.95594,6.95594,0,0,1,2.75,2.189,6.35512,6.35512,0,0,1,1.123,3.95166,6.97593,6.97593,0,0,1-1.00683,3.60254,7.34489,7.34489,0,0,1-2.9834,2.75049,9.97367,9.97367,0,0,1-4.72559,1.04589A11.21325,11.21325,0,0,1,312.20579,159.32813Z"/>
        <path class="cls-1" d="M349.91868,150.457h-17.5498a8.51927,8.51927,0,0,0,1.16211,4.10645,6.84082,6.84082,0,0,0,2.752,2.57617,8.04124,8.04124,0,0,0,3.71875.87158,7.471,7.471,0,0,0,4.43555-1.27832,6.00819,6.00819,0,0,0,2.38281-3.44824h2.86621a8.9551,8.9551,0,0,1-3.3125,5.05566,10.12594,10.12594,0,0,1-6.37207,1.95655,10.67184,10.67184,0,0,1-5.34668-1.33643,9.44123,9.44123,0,0,1-3.70019-3.79687,11.86994,11.86994,0,0,1-1.33594-5.75293,12.12846,12.12846,0,0,1,1.31738-5.772,9.15535,9.15535,0,0,1,3.68067-3.79638,10.86681,10.86681,0,0,1,5.38476-1.31739,10.33182,10.33182,0,0,1,5.28711,1.31739,9.09172,9.09172,0,0,1,3.48633,3.54443,10.10185,10.10185,0,0,1,1.2207,4.93945Q349.99583,149.72071,349.91868,150.457Zm-3.62207-6.2373a6.412,6.412,0,0,0-2.69238-2.51807,8.2042,8.2042,0,0,0-3.71973-.852,7.3878,7.3878,0,0,0-5.15234,1.937,7.74447,7.74447,0,0,0-2.36328,5.46192h14.877A7.52409,7.52409,0,0,0,346.29661,144.21973Z"/>
        <path class="cls-1" d="M360.3972,139.53223a8.75346,8.75346,0,0,1,4.51269-1.08447v2.82763h-.73535a6.84192,6.84192,0,0,0-4.72656,1.58838q-1.78272,1.58936-1.78223,5.30762v11.81543h-2.71093V138.835h2.71093v3.75781A6.621,6.621,0,0,1,360.3972,139.53223Z"/>
        <path class="cls-1" d="M376.49388,157.35254l7.12793-18.51758H386.488l-8.4834,21.15186h-3.06055L366.46068,138.835H369.366Z"/>
        <path class="cls-1" d="M390.1306,134.26367a1.94338,1.94338,0,0,1-.582-1.43359,1.88053,1.88053,0,0,1,.582-1.41357,2.01112,2.01112,0,0,1,2.78906,0,1.88608,1.88608,0,0,1,.58008,1.41357,1.94925,1.94925,0,0,1-.58008,1.43359,1.96395,1.96395,0,0,1-2.78906,0Zm2.75,4.57129v21.15186h-2.71192V138.835Z"/>
        <path class="cls-1" d="M399.11693,143.6582a9.37794,9.37794,0,0,1,3.64257-3.79687,10.45441,10.45441,0,0,1,5.30664-1.33643,10.3308,10.3308,0,0,1,6.4502,1.937,8.77557,8.77557,0,0,1,3.27344,5.26855H414.8845a5.95219,5.95219,0,0,0-2.34375-3.5835,7.45891,7.45891,0,0,0-4.47461-1.29736,7.63047,7.63047,0,0,0-3.835.96826,6.78368,6.78368,0,0,0-2.69238,2.88623,10.195,10.195,0,0,0-.98828,4.70655,10.31745,10.31745,0,0,0,.98828,4.72656,6.754,6.754,0,0,0,2.69238,2.90527,7.62073,7.62073,0,0,0,3.835.96875,7.45244,7.45244,0,0,0,4.47461-1.29785,5.96578,5.96578,0,0,0,2.34375-3.62207h2.90528a8.87488,8.87488,0,0,1-3.293,5.22949,10.20435,10.20435,0,0,1-6.43067,1.97608,10.45441,10.45441,0,0,1-5.30664-1.33643,9.37489,9.37489,0,0,1-3.64257-3.79687,13.22779,13.22779,0,0,1,0-11.50538Z"/>
        <path class="cls-1" d="M441.84739,150.457h-17.5498a8.50867,8.50867,0,0,0,1.16211,4.10645,6.84455,6.84455,0,0,0,2.751,2.57617,8.0441,8.0441,0,0,0,3.71875.87158,7.47091,7.47091,0,0,0,4.43554-1.27832,6.00375,6.00375,0,0,0,2.38282-3.44824H441.615a8.96,8.96,0,0,1-3.3125,5.05566,10.1288,10.1288,0,0,1-6.373,1.95655,10.66815,10.66815,0,0,1-5.34571-1.33643,9.435,9.435,0,0,1-3.70019-3.79687,11.8702,11.8702,0,0,1-1.33692-5.75293,12.11736,12.11736,0,0,1,1.31836-5.772,9.14732,9.14732,0,0,1,3.67969-3.79638,10.87212,10.87212,0,0,1,5.38477-1.31739,10.33548,10.33548,0,0,1,5.28808,1.31739,9.105,9.105,0,0,1,3.48633,3.54443,10.11245,10.11245,0,0,1,1.2207,4.93945Q441.92454,149.72071,441.84739,150.457Zm-3.623-6.2373a6.41529,6.41529,0,0,0-2.69141-2.51807,8.20711,8.20711,0,0,0-3.71972-.852,7.38614,7.38614,0,0,0-5.15235,1.937,7.73642,7.73642,0,0,0-2.36328,5.46192h14.876A7.52418,7.52418,0,0,0,438.22435,144.21973Z"/>
        <path class="cls-1" d="M448.21849,158.61133a6.14312,6.14312,0,0,1-2.57617-4.59033h2.79a4.00081,4.00081,0,0,0,1.68457,2.88623,6.5938,6.5938,0,0,0,4.00976,1.104,5.264,5.264,0,0,0,3.4668-1.0459,3.24464,3.24464,0,0,0,1.25976-2.5957,2.41452,2.41452,0,0,0-.69726-1.78223,4.94665,4.94665,0,0,0-1.7627-1.104,27.71428,27.71428,0,0,0-2.88574-.87158,29.17759,29.17759,0,0,1-3.83594-1.23975,6.51807,6.51807,0,0,1-2.498-1.83984,5.3022,5.3022,0,0,1-.09766-6.14063,6.35513,6.35513,0,0,1,2.63477-2.09179,9.2721,9.2721,0,0,1,3.874-.77491,8.3752,8.3752,0,0,1,5.501,1.72412,6.26122,6.26122,0,0,1,2.24707,4.74561h-2.71192a4.12313,4.12313,0,0,0-1.45312-3.00244,5.4532,5.4532,0,0,0-3.66016-1.14258,5.37408,5.37408,0,0,0-3.332.96826,2.9139,2.9139,0,0,0-1.27832,2.40186,2.82774,2.82774,0,0,0,.75488,2.03369,5.18024,5.18024,0,0,0,1.87891,1.23975q1.12353.446,3.02148.98779a28.5992,28.5992,0,0,1,3.64258,1.20117,6.325,6.325,0,0,1,2.32422,1.70459,4.57109,4.57109,0,0,1,1.00684,2.98291,5.19392,5.19392,0,0,1-.92969,3.041,6.32715,6.32715,0,0,1-2.5957,2.11132,9.00768,9.00768,0,0,1-3.835.77491A9.829,9.829,0,0,1,448.21849,158.61133Z"/>
        <path class="cls-1" d="M477.75755,139.28027a12.65928,12.65928,0,0,1,4.76465-4.91992,13.133,13.133,0,0,1,6.74121-1.76269,13.71039,13.71039,0,0,1,7.76758,2.15039,12.2205,12.2205,0,0,1,4.70605,6.0625h-3.17675a9.312,9.312,0,0,0-3.54493-4.29981,11.23753,11.23753,0,0,0-11.11718-.15527,9.6741,9.6741,0,0,0-3.73829,4.00977,14.18358,14.18358,0,0,0,0,12.106,9.69906,9.69906,0,0,0,3.73829,3.99024,11.30019,11.30019,0,0,0,11.11718-.13575,9.22021,9.22021,0,0,0,3.54493-4.24169H501.737a12.08342,12.08342,0,0,1-4.72558,6.00439,13.82515,13.82515,0,0,1-7.748,2.13086,13.1234,13.1234,0,0,1-6.74121-1.7627,12.68653,12.68653,0,0,1-4.76465-4.90039,15.47815,15.47815,0,0,1,0-14.27588Z"/>
        <path class="cls-1" d="M511.01536,158.96045a9.655,9.655,0,0,1-3.75781-3.79687,11.59309,11.59309,0,0,1-1.375-5.75293,11.4682,11.4682,0,0,1,1.39453-5.75245,9.75347,9.75347,0,0,1,3.79688-3.79687,10.88205,10.88205,0,0,1,5.38476-1.33643,11.00209,11.00209,0,0,1,5.4043,1.33643,9.59305,9.59305,0,0,1,3.7959,3.79687,12.60187,12.60187,0,0,1-.01953,11.48633,9.64883,9.64883,0,0,1-3.835,3.81592,11.10958,11.10958,0,0,1-5.42383,1.33643A10.77872,10.77872,0,0,1,511.01536,158.96045Zm9.23926-1.97607a7.246,7.246,0,0,0,2.88574-2.8667,9.29579,9.29579,0,0,0,1.1045-4.707,9.43713,9.43713,0,0,0-1.085-4.70655,7.1166,7.1166,0,0,0-2.86718-2.8667,8.37809,8.37809,0,0,0-7.74707,0,6.99655,6.99655,0,0,0-2.84766,2.8667,10.9294,10.9294,0,0,0,0,9.41358,7.02653,7.02653,0,0,0,2.82813,2.8667,7.99368,7.99368,0,0,0,3.85449.94921A8.10862,8.10862,0,0,0,520.25462,156.98438Z"/>
        <path class="cls-1" d="M563.23607,140.79151q2.34375,2.34375,2.34375,6.79882v12.39649h-2.67188V147.8999a7.5488,7.5488,0,0,0-1.666-5.26855,5.84319,5.84319,0,0,0-4.53321-1.8208,6.10036,6.10036,0,0,0-4.76465,1.97607,8.28489,8.28489,0,0,0-1.78222,5.7334v11.4668H547.489V147.8999a7.54412,7.54412,0,0,0-1.666-5.26855,5.88734,5.88734,0,0,0-4.57129-1.8208,6.10383,6.10383,0,0,0-4.76562,1.97607,8.28946,8.28946,0,0,0-1.78125,5.7334v11.4668H531.9929V138.835h2.71192v3.6416a6.93239,6.93239,0,0,1,2.86718-3.00244,8.4322,8.4322,0,0,1,4.14454-1.02636,8.80316,8.80316,0,0,1,4.82324,1.31689,7.43391,7.43391,0,0,1,3.00293,3.874,7.14385,7.14385,0,0,1,2.92383-3.85449,8.49592,8.49592,0,0,1,4.707-1.33642A8.20292,8.20292,0,0,1,563.23607,140.79151Z"/>
        <path class="cls-1" d="M577.45286,139.939a9.39458,9.39458,0,0,1,5.21094-1.41407,10.126,10.126,0,0,1,5.17188,1.33643,9.2979,9.2979,0,0,1,3.60254,3.79687,13.26976,13.26976,0,0,1,0,11.44727,9.39647,9.39647,0,0,1-3.60254,3.83545,10.00638,10.00638,0,0,1-5.17188,1.356,9.41543,9.41543,0,0,1-5.19141-1.41407,8.51127,8.51127,0,0,1-3.21484-3.54492v14.64356h-2.67383V138.835h2.67383v4.64893A8.55489,8.55489,0,0,1,577.45286,139.939Zm11.50586,4.88134a7.14038,7.14038,0,0,0-2.80859-2.9248,8.04434,8.04434,0,0,0-4.0293-1.00733,7.76607,7.76607,0,0,0-3.9707,1.0459,7.46771,7.46771,0,0,0-2.84668,2.98291,10.17738,10.17738,0,0,0,0,8.9878,7.46456,7.46456,0,0,0,2.84668,2.98291,7.76606,7.76606,0,0,0,3.9707,1.04589,7.92174,7.92174,0,0,0,4.0293-1.02636,7.20929,7.20929,0,0,0,2.80859-2.9834,9.66589,9.66589,0,0,0,1.02735-4.55176A9.52331,9.52331,0,0,0,588.95872,144.82031Z"/>
        <path class="cls-1" d="M597.79075,143.6582a9.29385,9.29385,0,0,1,3.60352-3.79687,10.19489,10.19489,0,0,1,5.21-1.33643,9.48888,9.48888,0,0,1,5.21094,1.39453,8.11154,8.11154,0,0,1,3.15625,3.56446V138.835h2.71289v21.15186h-2.71289v-4.6875a8.49226,8.49226,0,0,1-3.19531,3.58349,9.38839,9.38839,0,0,1-5.21094,1.41407,10.00281,10.00281,0,0,1-5.1709-1.356,9.39231,9.39231,0,0,1-3.60352-3.83545,13.27881,13.27881,0,0,1,0-11.44727ZM613.9265,144.917a7.46351,7.46351,0,0,0-2.84766-2.98291,7.76864,7.76864,0,0,0-3.9707-1.0459,8.04434,8.04434,0,0,0-4.0293,1.00733,7.13825,7.13825,0,0,0-2.80762,2.9248,9.50079,9.50079,0,0,0-1.02734,4.55176,9.64267,9.64267,0,0,0,1.02734,4.55176,7.20721,7.20721,0,0,0,2.80762,2.9834,7.92174,7.92174,0,0,0,4.0293,1.02636,7.76863,7.76863,0,0,0,3.9707-1.04589,7.46036,7.46036,0,0,0,2.84766-2.98291,10.18594,10.18594,0,0,0,0-8.9878Z"/>
        <path class="cls-1" d="M639.99779,140.79151q2.40234,2.34375,2.40234,6.79882v12.39649H639.7263V147.8999a7.37835,7.37835,0,0,0-1.72363-5.26855,6.17435,6.17435,0,0,0-4.707-1.8208,6.38094,6.38094,0,0,0-4.88086,1.937,8.02161,8.02161,0,0,0-1.82129,5.69482v11.54444h-2.71094V138.835h2.71094v3.60254a6.92669,6.92669,0,0,1,2.90625-2.96338,8.8923,8.8923,0,0,1,4.2998-1.02636A8.50326,8.50326,0,0,1,639.99779,140.79151Z"/>
        <path class="cls-1" d="M665.83665,138.835l-12.55176,31.10742h-2.82812l4.10645-10.07177L645.88548,138.835h2.9834L656.074,156.8877l6.97363-18.05274Z"/>
      </g>
    </g>
  </g>
</svg>
